<svg xmlns="http://www.w3.org/2000/svg" width="1468" height="681" fill="none"><path stroke="url(#a)" stroke-width="2" d="M-18.114-113h-79.29v79.286M-18.113-113v79.286m0-79.286h79.29m-79.29 79.286h-79.29m79.29 0h79.29m-79.29 0V45.57m-79.29-79.285V45.57M61.177-113v79.286m0-79.286h79.288m-79.29 79.286h79.289m-79.289 0V45.57M140.464-113v79.286m0-79.286h79.289m-79.289 79.286h79.289m-79.289 0V45.57M219.753-113v79.286m0-79.286h79.29m-79.29 79.286h79.29m-79.29 0V45.57M299.043-113v79.286m0-79.286h78.156m-78.156 79.286h78.156m-78.156 0V45.57M377.199-113v79.286m0-79.286h79.289m-79.289 79.286h79.289m-79.289 0V45.57M456.488-113v79.286m0-79.286h79.289m-79.289 79.286h79.289m-79.289 0V45.57M535.777-113v79.286m0-79.286h79.289m-79.289 79.286h79.289m-79.289 0V45.57M615.066-113v79.286m0-79.286h79.29m-79.29 79.286h79.29m-79.29 0V45.57M694.356-113v79.286m0-79.286h79.289m-79.289 79.286h79.289m-79.289 0V45.57M773.645-113v79.286m0-79.286h79.289m-79.289 79.286h79.289m-79.289 0V45.57M852.934-113v79.286m0-79.286h79.289m-79.289 79.286h79.289m-79.289 0V45.57M932.223-113v79.286m0-79.286h79.287m-79.287 79.286h79.287m-79.287 0V45.57M1011.51-113v79.286m0-79.286h79.29m-79.29 79.286h79.29m-79.29 0V45.57M1090.8-113v79.286m0-79.286h78.16m-78.16 79.286h78.16m-78.16 0V45.57M1168.96-113v79.286m0-79.286h79.29m-79.29 79.286h79.29m-79.29 0V45.57M1248.25-113v79.286m0-79.286h79.29m-79.29 79.286h79.29m-79.29 0V45.57M1327.54-113v79.286m0-79.286h79.29m-79.29 79.286h79.29m-79.29 0V45.57M1406.83-113v79.286m0-79.286h79.28m-79.28 79.286h79.28m-79.28 0V45.57M1486.11-113v79.286m0-79.286h79.29v79.286m-79.29 0h79.29m-79.29 0V45.57m79.29-79.285V45.57m-1583.514 0h-79.29m79.29 0v79.286m0-79.286h79.29m-158.58 0v79.286m79.29 0h-79.29m79.29 0v79.286m0-79.286h79.29m-158.58 0v79.286m79.29 0h-79.29m79.29 0v79.286m0-79.286h79.29m-158.58 0v79.286m79.29 0h-79.29m79.29 0v79.285m0-79.285h79.29m-158.58 0v79.285m79.29 0h-79.29m79.29 0V442m0-79.286h79.29m-158.58 0V442m79.29 0h-79.29m79.29 0v79.286m0-79.286h79.29m-158.58 0v79.286m79.29 0h-79.29m79.29 0v79.285m0-79.285h79.29m-158.58 0v79.285m79.29 0h-79.29m79.29 0v79.286m0-79.286h79.29m-158.58 0v79.286m79.29 0h-79.29m79.29 0v79.286m0-79.286h79.29m-158.58 0v79.286m79.29 0h-79.29m79.29 0v79.286m0-79.286h79.29m-158.58 0v79.286m79.29 0h-79.29m79.29 0v79.285m0-79.285h79.29m-158.58 0v79.285m79.29 0h-79.29m79.29 0V997m0-79.286h79.29m-158.58 0V997h79.29m0 0h79.29m0-951.429v79.286m0-79.286h79.288m-79.289 79.286v79.286m0-79.286h79.289m-79.289 79.286v79.286m0-79.286h79.289m-79.289 79.286v79.285m0-79.285h79.289m-79.289 79.285V442m0-79.286h79.289M61.175 442v79.286m0-79.286h79.289m-79.289 79.286v79.285m0-79.285h79.289m-79.289 79.285v79.286m0-79.286h79.289m-79.289 79.286v79.286m0-79.286h79.289m-79.289 79.286v79.286m0-79.286h79.289m-79.289 79.286v79.285m0-79.285h79.289m-79.289 79.285V997m0-79.286h79.289M61.175 997h79.289m0-951.429v79.286m0-79.286h79.289m-79.289 79.286v79.286m0-79.286h79.289m-79.289 79.286v79.286m0-79.286h79.289m-79.289 79.286v79.285m0-79.285h79.289m-79.289 79.285V442m0-79.286h79.289M140.464 442v79.286m0-79.286h79.289m-79.289 79.286v79.285m0-79.285h79.289m-79.289 79.285v79.286m0-79.286h79.289m-79.289 79.286v79.286m0-79.286h79.289m-79.289 79.286v79.286m0-79.286h79.289m-79.289 79.286v79.285m0-79.285h79.289m-79.289 79.285V997m0-79.286h79.289M140.464 997h79.289m0-951.429v79.286m0-79.286h79.29m-79.29 79.286v79.286m0-79.286h79.29m-79.29 79.286v79.286m0-79.286h79.29m-79.29 79.286v79.285m0-79.285h79.29m-79.29 79.285V442m0-79.286h79.29M219.753 442v79.286m0-79.286h79.29m-79.29 79.286v79.285m0-79.285h79.29m-79.29 79.285v79.286m0-79.286h79.29m-79.29 79.286v79.286m0-79.286h79.29m-79.29 79.286v79.286m0-79.286h79.29m-79.29 79.286v79.285m0-79.285h79.29m-79.29 79.285V997m0-79.286h79.29M219.753 997h79.29m0-951.429v79.286m0-79.286h78.156m-78.156 79.286v79.286m0-79.286h78.156m-78.156 79.286v79.286m0-79.286h78.156m-78.156 79.286v79.285m0-79.285h78.156m-78.156 79.285V442m0-79.286h78.156M299.043 442v79.286m0-79.286h78.156m-78.156 79.286v79.285m0-79.285h78.156m-78.156 79.285v79.286m0-79.286h78.156m-78.156 79.286v79.286m0-79.286h78.156m-78.156 79.286v79.286m0-79.286h78.156m-78.156 79.286v79.285m0-79.285h78.156m-78.156 79.285V997m0-79.286h78.156M299.043 997h78.156m0-951.429v79.286m0-79.286h79.289m-79.289 79.286v79.286m0-79.286h79.289m-79.289 79.286v79.286m0-79.286h79.289m-79.289 79.286v79.285m0-79.285h79.289m-79.289 79.285V442m0-79.286h79.289M377.199 442v79.286m0-79.286h79.289m-79.289 79.286v79.285m0-79.285h79.289m-79.289 79.285v79.286m0-79.286h79.289m-79.289 79.286v79.286m0-79.286h79.289m-79.289 79.286v79.286m0-79.286h79.289m-79.289 79.286v79.285m0-79.285h79.289m-79.289 79.285V997m0-79.286h79.289M377.199 997h79.289m0-951.429v79.286m0-79.286h79.289m-79.289 79.286v79.286m0-79.286h79.289m-79.289 79.286v79.286m0-79.286h79.289m-79.289 79.286v79.285m0-79.285h79.289m-79.289 79.285V442m0-79.286h79.289M456.488 442v79.286m0-79.286h79.289m-79.289 79.286v79.285m0-79.285h79.289m-79.289 79.285v79.286m0-79.286h79.289m-79.289 79.286v79.286m0-79.286h79.289m-79.289 79.286v79.286m0-79.286h79.289m-79.289 79.286v79.285m0-79.285h79.289m-79.289 79.285V997m0-79.286h79.289M456.488 997h79.289m0-951.429v79.286m0-79.286h79.289m-79.289 79.286v79.286m0-79.286h79.289m-79.289 79.286v79.286m0-79.286h79.289m-79.289 79.286v79.285m0-79.285h79.289m-79.289 79.285V442m0-79.286h79.289M535.777 442v79.286m0-79.286h79.289m-79.289 79.286v79.285m0-79.285h79.289m-79.289 79.285v79.286m0-79.286h79.289m-79.289 79.286v79.286m0-79.286h79.289m-79.289 79.286v79.286m0-79.286h79.289m-79.289 79.286v79.285m0-79.285h79.289m-79.289 79.285V997m0-79.286h79.289M535.777 997h79.289m0-951.429v79.286m0-79.286h79.29m-79.29 79.286v79.286m0-79.286h79.29m-79.29 79.286v79.286m0-79.286h79.29m-79.29 79.286v79.285m0-79.285h79.29m-79.29 79.285V442m0-79.286h79.29M615.066 442v79.286m0-79.286h79.29m-79.29 79.286v79.285m0-79.285h79.29m-79.29 79.285v79.286m0-79.286h79.29m-79.29 79.286v79.286m0-79.286h79.29m-79.29 79.286v79.286m0-79.286h79.29m-79.29 79.286v79.285m0-79.285h79.29m-79.29 79.285V997m0-79.286h79.29M615.066 997h79.29m0-951.429v79.286m0-79.286h79.289m-79.289 79.286v79.286m0-79.286h79.289m-79.289 79.286v79.286m0-79.286h79.289m-79.289 79.286v79.285m0-79.285h79.289m-79.289 79.285V442m0-79.286h79.289M694.356 442v79.286m0-79.286h79.289m-79.289 79.286v79.285m0-79.285h79.289m-79.289 79.285v79.286m0-79.286h79.289m-79.289 79.286v79.286m0-79.286h79.289m-79.289 79.286v79.286m0-79.286h79.289m-79.289 79.286v79.285m0-79.285h79.289m-79.289 79.285V997m0-79.286h79.289M694.356 997h79.289m0-951.429v79.286m0-79.286h79.289m-79.289 79.286v79.286m0-79.286h79.289m-79.289 79.286v79.286m0-79.286h79.289m-79.289 79.286v79.285m0-79.285h79.289m-79.289 79.285V442m0-79.286h79.289M773.645 442v79.286m0-79.286h79.289m-79.289 79.286v79.285m0-79.285h79.289m-79.289 79.285v79.286m0-79.286h79.289m-79.289 79.286v79.286m0-79.286h79.289m-79.289 79.286v79.286m0-79.286h79.289m-79.289 79.286v79.285m0-79.285h79.289m-79.289 79.285V997m0-79.286h79.289M773.645 997h79.289m0-951.429v79.286m0-79.286h79.289m-79.289 79.286v79.286m0-79.286h79.289m-79.289 79.286v79.286m0-79.286h79.289m-79.289 79.286v79.285m0-79.285h79.289m-79.289 79.285V442m0-79.286h79.289M852.934 442v79.286m0-79.286h79.289m-79.289 79.286v79.285m0-79.285h79.289m-79.289 79.285v79.286m0-79.286h79.289m-79.289 79.286v79.286m0-79.286h79.289m-79.289 79.286v79.286m0-79.286h79.289m-79.289 79.286v79.285m0-79.285h79.289m-79.289 79.285V997m0-79.286h79.289M852.934 997h79.289m0-951.429v79.286m0-79.286h79.287m-79.287 79.286v79.286m0-79.286h79.287m-79.287 79.286v79.286m0-79.286h79.287m-79.287 79.286v79.285m0-79.285h79.287m-79.287 79.285V442m0-79.286h79.287M932.223 442v79.286m0-79.286h79.287m-79.287 79.286v79.285m0-79.285h79.287m-79.287 79.285v79.286m0-79.286h79.287m-79.287 79.286v79.286m0-79.286h79.287m-79.287 79.286v79.286m0-79.286h79.287m-79.287 79.286v79.285m0-79.285h79.287m-79.287 79.285V997m0-79.286h79.287M932.223 997h79.287m0-951.429v79.286m0-79.286h79.29m-79.29 79.286v79.286m0-79.286h79.29m-79.29 79.286v79.286m0-79.286h79.29m-79.29 79.286v79.285m0-79.285h79.29m-79.29 79.285V442m0-79.286h79.29M1011.51 442v79.286m0-79.286h79.29m-79.29 79.286v79.285m0-79.285h79.29m-79.29 79.285v79.286m0-79.286h79.29m-79.29 79.286v79.286m0-79.286h79.29m-79.29 79.286v79.286m0-79.286h79.29m-79.29 79.286v79.285m0-79.285h79.29m-79.29 79.285V997m0-79.286h79.29M1011.51 997h79.29m0-951.429v79.286m0-79.286h78.16m-78.16 79.286v79.286m0-79.286h78.16m-78.16 79.286v79.286m0-79.286h78.16m-78.16 79.286v79.285m0-79.285h78.16m-78.16 79.285V442m0-79.286h78.16M1090.8 442v79.286m0-79.286h78.16m-78.16 79.286v79.285m0-79.285h78.16m-78.16 79.285v79.286m0-79.286h78.16m-78.16 79.286v79.286m0-79.286h78.16m-78.16 79.286v79.286m0-79.286h78.16m-78.16 79.286v79.285m0-79.285h78.16m-78.16 79.285V997m0-79.286h78.16M1090.8 997h78.16m0-951.429v79.286m0-79.286h79.29m-79.29 79.286v79.286m0-79.286h79.29m-79.29 79.286v79.286m0-79.286h79.29m-79.29 79.286v79.285m0-79.285h79.29m-79.29 79.285V442m0-79.286h79.29M1168.96 442v79.286m0-79.286h79.29m-79.29 79.286v79.285m0-79.285h79.29m-79.29 79.285v79.286m0-79.286h79.29m-79.29 79.286v79.286m0-79.286h79.29m-79.29 79.286v79.286m0-79.286h79.29m-79.29 79.286v79.285m0-79.285h79.29m-79.29 79.285V997m0-79.286h79.29M1168.96 997h79.29m0-951.429v79.286m0-79.286h79.29m-79.29 79.286v79.286m0-79.286h79.29m-79.29 79.286v79.286m0-79.286h79.29m-79.29 79.286v79.285m0-79.285h79.29m-79.29 79.285V442m0-79.286h79.29M1248.25 442v79.286m0-79.286h79.29m-79.29 79.286v79.285m0-79.285h79.29m-79.29 79.285v79.286m0-79.286h79.29m-79.29 79.286v79.286m0-79.286h79.29m-79.29 79.286v79.286m0-79.286h79.29m-79.29 79.286v79.285m0-79.285h79.29m-79.29 79.285V997m0-79.286h79.29M1248.25 997h79.29m0-951.429v79.286m0-79.286h79.29m-79.29 79.286v79.286m0-79.286h79.29m-79.29 79.286v79.286m0-79.286h79.29m-79.29 79.286v79.285m0-79.285h79.29m-79.29 79.285V442m0-79.286h79.29M1327.54 442v79.286m0-79.286h79.29m-79.29 79.286v79.285m0-79.285h79.29m-79.29 79.285v79.286m0-79.286h79.29m-79.29 79.286v79.286m0-79.286h79.29m-79.29 79.286v79.286m0-79.286h79.29m-79.29 79.286v79.285m0-79.285h79.29m-79.29 79.285V997m0-79.286h79.29M1327.54 997h79.29m0-951.429v79.286m0-79.286h79.28m-79.28 79.286v79.286m0-79.286h79.28m-79.28 79.286v79.286m0-79.286h79.28m-79.28 79.286v79.285m0-79.285h79.28m-79.28 79.285V442m0-79.286h79.28M1406.83 442v79.286m0-79.286h79.28m-79.28 79.286v79.285m0-79.285h79.28m-79.28 79.285v79.286m0-79.286h79.28m-79.28 79.286v79.286m0-79.286h79.28m-79.28 79.286v79.286m0-79.286h79.28m-79.28 79.286v79.285m0-79.285h79.28m-79.28 79.285V997m0-79.286h79.28M1406.83 997h79.28m0-951.429v79.286m0-79.286h79.29m-79.29 79.286v79.286m0-79.286h79.29m-79.29 79.286v79.286m0-79.286h79.29m-79.29 79.286v79.285m0-79.285h79.29m-79.29 79.285V442m0-79.286h79.29M1486.11 442v79.286m0-79.286h79.29m-79.29 79.286v79.285m0-79.285h79.29m-79.29 79.285v79.286m0-79.286h79.29m-79.29 79.286v79.286m0-79.286h79.29m-79.29 79.286v79.286m0-79.286h79.29m-79.29 79.286v79.285m0-79.285h79.29m-79.29 79.285V997m0-79.286h79.29M1486.11 997h79.29v-79.286m0-872.143v79.286m0 0v79.286m0 0v79.286m0 0v79.285m0 0V442m0 0v79.286m0 0v79.285m0 0v79.286m0 0v79.286m0 0v79.286m0 0v79.285" opacity=".15"/><defs><radialGradient id="a" cx="0" cy="0" r="1" gradientTransform="matrix(-601 0 0 -602.796 396.5 442)" gradientUnits="userSpaceOnUse"><stop stop-color="#BEBEBE"/><stop offset="1" stop-color="#BEBEBE" stop-opacity="0"/></radialGradient></defs></svg>